<svg width="159" height="72" viewBox="0 0 159 72" fill="none" xmlns="http://www.w3.org/2000/svg">
<mask id="mask0_14_1241" style="mask-type:alpha" maskUnits="userSpaceOnUse" x="0" y="0" width="159" height="72">
<rect width="159" height="72" fill="#D9D9D9"/>
</mask>
<g mask="url(#mask0_14_1241)">
<line x1="-5" y1="2.5" x2="175" y2="2.5" stroke="black"/>
<line x1="-5" y1="62.5" x2="175" y2="62.5" stroke="black"/>
<line x1="-5" y1="32.5" x2="175" y2="32.5" stroke="black"/>
<line x1="-5" y1="17.5" x2="175" y2="17.5" stroke="black"/>
<line x1="-5" y1="47.5" x2="175" y2="47.5" stroke="black"/>
<line x1="-5" y1="7.5" x2="175" y2="7.5" stroke="black"/>
<line x1="-5" y1="67.5" x2="175" y2="67.5" stroke="black"/>
<line x1="-5" y1="37.5" x2="175" y2="37.5" stroke="black"/>
<line x1="-5" y1="22.5" x2="175" y2="22.5" stroke="black"/>
<line x1="-5" y1="52.5" x2="175" y2="52.5" stroke="black"/>
<line x1="-5" y1="12.5" x2="175" y2="12.5" stroke="black"/>
<line x1="-5" y1="42.5" x2="175" y2="42.5" stroke="black"/>
<line x1="-5" y1="27.5" x2="175" y2="27.5" stroke="black"/>
<line x1="-5" y1="57.5" x2="175" y2="57.5" stroke="black"/>
</g>
</svg>
