<svg width="152" height="152" viewBox="0 0 152 152" fill="none" xmlns="http://www.w3.org/2000/svg">
<mask id="mask0_14_1344" style="mask-type:alpha" maskUnits="userSpaceOnUse" x="-1" y="0" width="153" height="152">
<rect x="152" y="7.62939e-06" width="152" height="152" rx="76" transform="rotate(90 152 7.62939e-06)" fill="#D9D9D9"/>
</mask>
<g mask="url(#mask0_14_1344)">
<mask id="mask1_14_1344" style="mask-type:alpha" maskUnits="userSpaceOnUse" x="-37" y="-20" width="222" height="97">
<rect x="-36.0002" y="-20" width="221" height="97" fill="#D9D9D9"/>
</mask>
<g mask="url(#mask1_14_1344)">
<line x1="258.469" y1="48.3805" x2="150.002" y2="236.25" stroke="black"/>
<line x1="127.454" y1="-27.2607" x2="18.9877" y2="160.609" stroke="black"/>
<line x1="192.961" y1="10.5599" x2="84.4948" y2="198.429" stroke="black"/>
<line x1="61.9472" y1="-65.0812" x2="-46.5194" y2="122.788" stroke="black"/>
<line x1="225.715" y1="29.4701" x2="117.248" y2="217.34" stroke="black"/>
<line x1="94.7008" y1="-46.1709" x2="-13.7657" y2="141.699" stroke="black"/>
<line x1="160.208" y1="-8.35038" x2="51.7414" y2="179.519" stroke="black"/>
<line x1="29.1935" y1="-83.9915" x2="-79.273" y2="103.878" stroke="black"/>
<line x1="242.092" y1="38.9253" x2="133.625" y2="226.795" stroke="black"/>
<line x1="111.078" y1="-36.7158" x2="2.61102" y2="151.154" stroke="black"/>
<line x1="176.585" y1="1.10479" x2="68.1181" y2="188.974" stroke="black"/>
<line x1="45.5705" y1="-74.5364" x2="-62.8961" y2="113.333" stroke="black"/>
<line x1="209.338" y1="20.015" x2="100.872" y2="207.885" stroke="black"/>
<line x1="78.3239" y1="-55.6261" x2="-30.1426" y2="132.243" stroke="black"/>
<line x1="143.831" y1="-17.8055" x2="35.3644" y2="170.064" stroke="black"/>
<line x1="12.8168" y1="-93.4466" x2="-95.6497" y2="94.4229" stroke="black"/>
<line x1="253.01" y1="45.2287" x2="144.543" y2="233.098" stroke="black"/>
<line x1="121.996" y1="-30.4123" x2="13.529" y2="157.457" stroke="black"/>
<line x1="187.503" y1="7.40822" x2="79.0361" y2="195.278" stroke="black"/>
<line x1="56.4882" y1="-68.2329" x2="-51.9783" y2="119.637" stroke="black"/>
<line x1="220.256" y1="26.3184" x2="111.789" y2="214.188" stroke="black"/>
<line x1="89.2419" y1="-49.3227" x2="-19.2247" y2="138.547" stroke="black"/>
<line x1="154.749" y1="-11.5021" x2="46.2826" y2="176.367" stroke="black"/>
<line x1="23.7348" y1="-87.1432" x2="-84.7318" y2="100.726" stroke="black"/>
<line x1="236.633" y1="35.7735" x2="128.166" y2="223.643" stroke="black"/>
<line x1="105.619" y1="-39.8675" x2="-2.84797" y2="148.002" stroke="black"/>
<line x1="171.126" y1="-2.04694" x2="62.6594" y2="185.823" stroke="black"/>
<line x1="40.1115" y1="-77.6881" x2="-68.355" y2="110.181" stroke="black"/>
<line x1="203.879" y1="16.8633" x2="95.4128" y2="204.733" stroke="black"/>
<line x1="72.8649" y1="-58.7778" x2="-35.6016" y2="129.092" stroke="black"/>
<line x1="138.372" y1="-20.9572" x2="29.9057" y2="166.912" stroke="black"/>
<line x1="7.35782" y1="-96.5984" x2="-101.109" y2="91.2711" stroke="black"/>
<line x1="247.551" y1="42.077" x2="139.084" y2="229.946" stroke="black"/>
<line x1="116.537" y1="-33.5641" x2="8.07" y2="154.305" stroke="black"/>
<line x1="182.044" y1="4.25646" x2="73.5771" y2="192.126" stroke="black"/>
<line x1="51.0294" y1="-71.3846" x2="-57.4371" y2="116.485" stroke="black"/>
<line x1="214.797" y1="23.1667" x2="106.33" y2="211.036" stroke="black"/>
<line x1="83.7829" y1="-52.4744" x2="-24.6837" y2="135.395" stroke="black"/>
<line x1="149.29" y1="-14.6538" x2="40.8234" y2="173.216" stroke="black"/>
<line x1="18.2758" y1="-90.2949" x2="-90.1907" y2="97.5746" stroke="black"/>
<line x1="231.174" y1="32.6219" x2="122.707" y2="220.491" stroke="black"/>
<line x1="100.16" y1="-43.0192" x2="-8.30671" y2="144.85" stroke="black"/>
<line x1="165.667" y1="-5.19864" x2="57.2004" y2="182.671" stroke="black"/>
<line x1="34.6527" y1="-80.8398" x2="-73.8138" y2="107.03" stroke="black"/>
<line x1="198.42" y1="13.7116" x2="89.9538" y2="201.581" stroke="black"/>
<line x1="67.4062" y1="-61.9295" x2="-41.0604" y2="125.94" stroke="black"/>
<line x1="132.913" y1="-24.1089" x2="24.4467" y2="163.761" stroke="black"/>
<line x1="1.89908" y1="-99.75" x2="-106.567" y2="88.1195" stroke="black"/>
</g>
</g>
</svg>
