<svg width="159" height="151" viewBox="0 0 159 151" fill="none" xmlns="http://www.w3.org/2000/svg">
<mask id="mask0_14_1550" style="mask-type:alpha" maskUnits="userSpaceOnUse" x="0" y="0" width="159" height="151">
<rect y="4.57764e-05" width="159" height="151" fill="#D9D9D9"/>
</mask>
<g mask="url(#mask0_14_1550)">
<circle cx="4" cy="4.50005" r="2" fill="black"/>
<circle cx="4" cy="32.5" r="2" fill="black"/>
<circle cx="4" cy="89" r="2" fill="black"/>
<circle cx="4" cy="60.5" r="2" fill="black"/>
<circle cx="4" cy="117" r="2" fill="black"/>
<circle cx="4" cy="145" r="2" fill="black"/>
<circle cx="18" cy="18.5" r="2" fill="black"/>
<circle cx="18" cy="75" r="2" fill="black"/>
<circle cx="18" cy="46.5" r="2" fill="black"/>
<circle cx="18" cy="103" r="2" fill="black"/>
<circle cx="18" cy="131" r="2" fill="black"/>
<circle cx="79" cy="4.50005" r="2" fill="black"/>
<circle cx="79" cy="32.5" r="2" fill="black"/>
<circle cx="79" cy="89" r="2" fill="black"/>
<circle cx="79" cy="60.5" r="2" fill="black"/>
<circle cx="79" cy="117" r="2" fill="black"/>
<circle cx="79" cy="145" r="2" fill="black"/>
<circle cx="93" cy="18.5" r="2" fill="black"/>
<circle cx="93" cy="75" r="2" fill="black"/>
<circle cx="93" cy="46.5" r="2" fill="black"/>
<circle cx="93" cy="103" r="2" fill="black"/>
<circle cx="93" cy="131" r="2" fill="black"/>
<circle cx="29" cy="4.50005" r="2" fill="black"/>
<circle cx="29" cy="32.5" r="2" fill="black"/>
<circle cx="29" cy="89" r="2" fill="black"/>
<circle cx="29" cy="60.5" r="2" fill="black"/>
<circle cx="29" cy="117" r="2" fill="black"/>
<circle cx="29" cy="145" r="2" fill="black"/>
<circle cx="43" cy="18.5" r="2" fill="black"/>
<circle cx="43" cy="75" r="2" fill="black"/>
<circle cx="43" cy="46.5" r="2" fill="black"/>
<circle cx="43" cy="103" r="2" fill="black"/>
<circle cx="43" cy="131" r="2" fill="black"/>
<circle cx="104" cy="4.50005" r="2" fill="black"/>
<circle cx="104" cy="32.5" r="2" fill="black"/>
<circle cx="104" cy="89" r="2" fill="black"/>
<circle cx="104" cy="60.5" r="2" fill="black"/>
<circle cx="104" cy="117" r="2" fill="black"/>
<circle cx="104" cy="145" r="2" fill="black"/>
<circle cx="118" cy="18.5" r="2" fill="black"/>
<circle cx="118" cy="75" r="2" fill="black"/>
<circle cx="118" cy="46.5" r="2" fill="black"/>
<circle cx="118" cy="103" r="2" fill="black"/>
<circle cx="118" cy="131" r="2" fill="black"/>
<circle cx="54" cy="4.50005" r="2" fill="black"/>
<circle cx="54" cy="32.5" r="2" fill="black"/>
<circle cx="54" cy="89" r="2" fill="black"/>
<circle cx="54" cy="60.5" r="2" fill="black"/>
<circle cx="54" cy="117" r="2" fill="black"/>
<circle cx="54" cy="145" r="2" fill="black"/>
<circle cx="68" cy="18.5" r="2" fill="black"/>
<circle cx="68" cy="75" r="2" fill="black"/>
<circle cx="68" cy="46.5" r="2" fill="black"/>
<circle cx="68" cy="103" r="2" fill="black"/>
<circle cx="68" cy="131" r="2" fill="black"/>
<circle cx="129" cy="4.50005" r="2" fill="black"/>
<circle cx="129" cy="32.5" r="2" fill="black"/>
<circle cx="129" cy="89" r="2" fill="black"/>
<circle cx="129" cy="60.5" r="2" fill="black"/>
<circle cx="129" cy="117" r="2" fill="black"/>
<circle cx="129" cy="145" r="2" fill="black"/>
<circle cx="143" cy="18.5" r="2" fill="black"/>
<circle cx="143" cy="75" r="2" fill="black"/>
<circle cx="143" cy="46.5" r="2" fill="black"/>
<circle cx="143" cy="103" r="2" fill="black"/>
<circle cx="143" cy="131" r="2" fill="black"/>
<circle cx="154" cy="4.50005" r="2" fill="black"/>
<circle cx="154" cy="32.5" r="2" fill="black"/>
<circle cx="154" cy="89" r="2" fill="black"/>
<circle cx="154" cy="60.5" r="2" fill="black"/>
<circle cx="154" cy="117" r="2" fill="black"/>
<circle cx="154" cy="145" r="2" fill="black"/>
</g>
</svg>
