<svg width="113" height="159" viewBox="0 0 113 159" fill="none" xmlns="http://www.w3.org/2000/svg">
<mask id="mask0_14_1585" style="mask-type:alpha" maskUnits="userSpaceOnUse" x="0" y="0" width="113" height="159">
<rect x="113" width="159" height="113" transform="rotate(90 113 0)" fill="#D9D9D9"/>
</mask>
<g mask="url(#mask0_14_1585)">
<circle cx="78.5" cy="21.5" r="3.5" transform="rotate(90 78.5 21.5)" fill="black"/>
<circle cx="60.5" cy="21.5" r="3.5" transform="rotate(90 60.5 21.5)" fill="black"/>
<circle cx="42.5" cy="21.5" r="3.5" transform="rotate(90 42.5 21.5)" fill="black"/>
<circle cx="24.5" cy="21.5" r="3.5" transform="rotate(90 24.5 21.5)" fill="black"/>
<circle cx="78.5" cy="102.5" r="3.5" transform="rotate(90 78.5 102.5)" fill="black"/>
<circle cx="60.5" cy="102.5" r="3.5" transform="rotate(90 60.5 102.5)" fill="black"/>
<circle cx="42.5" cy="102.5" r="3.5" transform="rotate(90 42.5 102.5)" fill="black"/>
<circle cx="24.5" cy="102.5" r="3.5" transform="rotate(90 24.5 102.5)" fill="black"/>
<circle cx="78.5" cy="48.5" r="3.5" transform="rotate(90 78.5 48.5)" fill="black"/>
<circle cx="60.5" cy="48.5" r="3.5" transform="rotate(90 60.5 48.5)" fill="black"/>
<circle cx="42.5" cy="48.5" r="3.5" transform="rotate(90 42.5 48.5)" fill="black"/>
<circle cx="24.5" cy="48.5" r="3.5" transform="rotate(90 24.5 48.5)" fill="black"/>
<circle cx="78.5" cy="129.5" r="3.5" transform="rotate(90 78.5 129.5)" fill="black"/>
<circle cx="60.5" cy="129.5" r="3.5" transform="rotate(90 60.5 129.5)" fill="black"/>
<circle cx="42.5" cy="129.5" r="3.5" transform="rotate(90 42.5 129.5)" fill="black"/>
<circle cx="24.5" cy="129.5" r="3.5" transform="rotate(90 24.5 129.5)" fill="black"/>
<circle cx="78.5" cy="75.5" r="3.5" transform="rotate(90 78.5 75.5)" fill="black"/>
<circle cx="60.5" cy="75.5" r="3.5" transform="rotate(90 60.5 75.5)" fill="black"/>
<circle cx="42.5" cy="75.5" r="3.5" transform="rotate(90 42.5 75.5)" fill="black"/>
<circle cx="24.5" cy="75.5" r="3.5" transform="rotate(90 24.5 75.5)" fill="black"/>
</g>
</svg>
