<svg width="152" height="152" viewBox="0 0 152 152" fill="none" xmlns="http://www.w3.org/2000/svg">
<mask id="mask0_8_160" style="mask-type:alpha" maskUnits="userSpaceOnUse" x="0" y="0" width="152" height="152">
<rect x="152" width="152" height="152" transform="rotate(90 152 0)" fill="#D9D9D9"/>
</mask>
<g mask="url(#mask0_8_160)">
<line x1="258.469" y1="62.3805" x2="150.003" y2="250.25" stroke="black"/>
<line x1="127.455" y1="-13.2607" x2="18.9883" y2="174.609" stroke="black"/>
<line x1="192.962" y1="24.5599" x2="84.4954" y2="212.429" stroke="black"/>
<line x1="61.9477" y1="-51.0812" x2="-46.5189" y2="136.788" stroke="black"/>
<line x1="225.716" y1="43.4701" x2="117.249" y2="231.34" stroke="black"/>
<line x1="94.7013" y1="-32.1709" x2="-13.7652" y2="155.699" stroke="black"/>
<line x1="160.209" y1="5.64963" x2="51.742" y2="193.519" stroke="black"/>
<line x1="29.1941" y1="-69.9915" x2="-79.2724" y2="117.878" stroke="black"/>
<line x1="242.092" y1="52.9253" x2="133.626" y2="240.795" stroke="black"/>
<line x1="111.078" y1="-22.7158" x2="2.6115" y2="165.154" stroke="black"/>
<line x1="176.585" y1="15.1048" x2="68.1187" y2="202.974" stroke="black"/>
<line x1="45.571" y1="-60.5364" x2="-62.8956" y2="127.333" stroke="black"/>
<line x1="209.339" y1="34.015" x2="100.872" y2="221.885" stroke="black"/>
<line x1="78.3244" y1="-41.6261" x2="-30.1422" y2="146.243" stroke="black"/>
<line x1="143.832" y1="-3.80551" x2="35.365" y2="184.064" stroke="black"/>
<line x1="12.8173" y1="-79.4467" x2="-95.6492" y2="108.423" stroke="black"/>
<line x1="253.01" y1="59.2287" x2="144.544" y2="247.098" stroke="black"/>
<line x1="121.996" y1="-16.4123" x2="13.5295" y2="171.457" stroke="black"/>
<line x1="187.503" y1="21.4082" x2="79.0366" y2="209.278" stroke="black"/>
<line x1="56.4888" y1="-54.2329" x2="-51.9777" y2="133.637" stroke="black"/>
<line x1="220.257" y1="40.3185" x2="111.79" y2="228.188" stroke="black"/>
<line x1="89.2425" y1="-35.3227" x2="-19.2241" y2="152.547" stroke="black"/>
<line x1="154.75" y1="2.49792" x2="46.2831" y2="190.367" stroke="black"/>
<line x1="23.7353" y1="-73.1432" x2="-84.7313" y2="114.726" stroke="black"/>
<line x1="236.634" y1="49.7735" x2="128.167" y2="237.643" stroke="black"/>
<line x1="105.619" y1="-25.8675" x2="-2.84736" y2="162.002" stroke="black"/>
<line x1="171.126" y1="11.9531" x2="62.6598" y2="199.823" stroke="black"/>
<line x1="40.1121" y1="-63.688" x2="-68.3544" y2="124.181" stroke="black"/>
<line x1="203.88" y1="30.8633" x2="95.4134" y2="218.733" stroke="black"/>
<line x1="72.8655" y1="-44.7778" x2="-35.601" y2="143.092" stroke="black"/>
<line x1="138.373" y1="-6.95721" x2="29.9062" y2="180.912" stroke="black"/>
<line x1="7.35843" y1="-82.5984" x2="-101.108" y2="105.271" stroke="black"/>
<line x1="247.551" y1="56.077" x2="139.085" y2="243.946" stroke="black"/>
<line x1="116.537" y1="-19.5641" x2="8.07061" y2="168.305" stroke="black"/>
<line x1="182.044" y1="18.2565" x2="73.5776" y2="206.126" stroke="black"/>
<line x1="51.0299" y1="-57.3846" x2="-57.4366" y2="130.485" stroke="black"/>
<line x1="214.798" y1="37.1667" x2="106.331" y2="225.036" stroke="black"/>
<line x1="83.7835" y1="-38.4744" x2="-24.6831" y2="149.395" stroke="black"/>
<line x1="149.291" y1="-0.653778" x2="40.824" y2="187.216" stroke="black"/>
<line x1="18.2763" y1="-76.2949" x2="-90.1903" y2="111.575" stroke="black"/>
<line x1="231.174" y1="46.6219" x2="122.708" y2="234.491" stroke="black"/>
<line x1="100.16" y1="-29.0192" x2="-8.30622" y2="158.85" stroke="black"/>
<line x1="165.667" y1="8.80136" x2="57.2009" y2="196.671" stroke="black"/>
<line x1="34.6532" y1="-66.8398" x2="-73.8133" y2="121.03" stroke="black"/>
<line x1="198.421" y1="27.7116" x2="89.9543" y2="215.581" stroke="black"/>
<line x1="67.4066" y1="-47.9294" x2="-41.0599" y2="139.94" stroke="black"/>
<line x1="132.914" y1="-10.1089" x2="24.4473" y2="177.761" stroke="black"/>
<line x1="1.89957" y1="-85.75" x2="-106.567" y2="102.12" stroke="black"/>
</g>
</svg>
