<svg width="159" height="152" viewBox="0 0 159 152" fill="none" xmlns="http://www.w3.org/2000/svg">
<mask id="mask0_8_7" style="mask-type:alpha" maskUnits="userSpaceOnUse" x="0" y="0" width="159" height="152">
<rect x="-6.10352e-05" width="159" height="152" fill="#D9D9D9"/>
</mask>
<g mask="url(#mask0_8_7)">
<line x1="-5.00006" y1="2.5" x2="175" y2="2.5" stroke="black"/>
<line x1="-5.00006" y1="122.5" x2="175" y2="122.5" stroke="black"/>
<line x1="-5.00006" y1="62.5" x2="175" y2="62.5" stroke="black"/>
<line x1="-5.00006" y1="32.5" x2="175" y2="32.5" stroke="black"/>
<line x1="-5.00006" y1="92.5" x2="175" y2="92.5" stroke="black"/>
<line x1="-5.00006" y1="17.5" x2="175" y2="17.5" stroke="black"/>
<line x1="-5.00006" y1="137.5" x2="175" y2="137.5" stroke="black"/>
<line x1="-5.00006" y1="77.5" x2="175" y2="77.5" stroke="black"/>
<line x1="-5.00006" y1="47.5" x2="175" y2="47.5" stroke="black"/>
<line x1="-5.00006" y1="107.5" x2="175" y2="107.5" stroke="black"/>
<line x1="-5.00006" y1="7.5" x2="175" y2="7.5" stroke="black"/>
<line x1="-5.00006" y1="127.5" x2="175" y2="127.5" stroke="black"/>
<line x1="-5.00006" y1="67.5" x2="175" y2="67.5" stroke="black"/>
<line x1="-5.00006" y1="37.5" x2="175" y2="37.5" stroke="black"/>
<line x1="-5.00006" y1="97.5" x2="175" y2="97.5" stroke="black"/>
<line x1="-5.00006" y1="22.5" x2="175" y2="22.5" stroke="black"/>
<line x1="-5.00006" y1="142.5" x2="175" y2="142.5" stroke="black"/>
<line x1="-5.00006" y1="82.5" x2="175" y2="82.5" stroke="black"/>
<line x1="-5.00006" y1="52.5" x2="175" y2="52.5" stroke="black"/>
<line x1="-5.00006" y1="112.5" x2="175" y2="112.5" stroke="black"/>
<line x1="-5.00006" y1="12.5" x2="175" y2="12.5" stroke="black"/>
<line x1="-5.00006" y1="132.5" x2="175" y2="132.5" stroke="black"/>
<line x1="-5.00006" y1="72.5" x2="175" y2="72.5" stroke="black"/>
<line x1="-5.00006" y1="42.5" x2="175" y2="42.5" stroke="black"/>
<line x1="-5.00006" y1="102.5" x2="175" y2="102.5" stroke="black"/>
<line x1="-5.00006" y1="27.5" x2="175" y2="27.5" stroke="black"/>
<line x1="-5.00006" y1="147.5" x2="175" y2="147.5" stroke="black"/>
<line x1="-5.00006" y1="87.5" x2="175" y2="87.5" stroke="black"/>
<line x1="-5.00006" y1="57.5" x2="175" y2="57.5" stroke="black"/>
<line x1="-5.00006" y1="117.5" x2="175" y2="117.5" stroke="black"/>
</g>
</svg>
