<svg width="152" height="152" viewBox="0 0 152 152" fill="none" xmlns="http://www.w3.org/2000/svg">
<mask id="mask0_13_981" style="mask-type:alpha" maskUnits="userSpaceOnUse" x="0" y="0" width="152" height="152">
<rect x="152" y="3.05176e-05" width="152" height="152" rx="76" transform="rotate(90 152 3.05176e-05)" fill="#D9D9D9"/>
</mask>
<g mask="url(#mask0_13_981)">
<line x1="149.5" y1="-4.77982" x2="149.5" y2="167.296" stroke="black"/>
<line x1="29.5" y1="-4.77982" x2="29.5" y2="167.296" stroke="black"/>
<line x1="89.5" y1="-4.77982" x2="89.5" y2="167.296" stroke="black"/>
<line x1="119.5" y1="-4.77982" x2="119.5" y2="167.296" stroke="black"/>
<line x1="59.5" y1="-4.77982" x2="59.5" y2="167.296" stroke="black"/>
<line x1="134.5" y1="-4.77982" x2="134.5" y2="167.296" stroke="black"/>
<line x1="14.5" y1="-4.77982" x2="14.5" y2="167.296" stroke="black"/>
<line x1="74.5" y1="-4.77982" x2="74.5" y2="167.296" stroke="black"/>
<line x1="104.5" y1="-4.77982" x2="104.5" y2="167.296" stroke="black"/>
<line x1="44.5" y1="-4.77982" x2="44.5" y2="167.296" stroke="black"/>
<line x1="144.5" y1="-4.77982" x2="144.5" y2="167.296" stroke="black"/>
<line x1="24.5" y1="-4.77982" x2="24.5" y2="167.296" stroke="black"/>
<line x1="84.5" y1="-4.77982" x2="84.5" y2="167.296" stroke="black"/>
<line x1="114.5" y1="-4.77982" x2="114.5" y2="167.296" stroke="black"/>
<line x1="54.5" y1="-4.77982" x2="54.5" y2="167.296" stroke="black"/>
<line x1="129.5" y1="-4.77982" x2="129.5" y2="167.296" stroke="black"/>
<line x1="9.5" y1="-4.77982" x2="9.49999" y2="167.296" stroke="black"/>
<line x1="69.5" y1="-4.77982" x2="69.5" y2="167.296" stroke="black"/>
<line x1="99.5" y1="-4.77982" x2="99.5" y2="167.296" stroke="black"/>
<line x1="39.5" y1="-4.77982" x2="39.5" y2="167.296" stroke="black"/>
<line x1="139.5" y1="-4.77982" x2="139.5" y2="167.296" stroke="black"/>
<line x1="19.5" y1="-4.77982" x2="19.5" y2="167.296" stroke="black"/>
<line x1="79.5" y1="-4.77982" x2="79.5" y2="167.296" stroke="black"/>
<line x1="109.5" y1="-4.77982" x2="109.5" y2="167.296" stroke="black"/>
<line x1="49.5" y1="-4.77982" x2="49.5" y2="167.296" stroke="black"/>
<line x1="124.5" y1="-4.77982" x2="124.5" y2="167.296" stroke="black"/>
<line x1="4.5" y1="-4.77982" x2="4.49999" y2="167.296" stroke="black"/>
<line x1="64.5" y1="-4.77982" x2="64.5" y2="167.296" stroke="black"/>
<line x1="94.5" y1="-4.77982" x2="94.5" y2="167.296" stroke="black"/>
<line x1="34.5" y1="-4.77982" x2="34.5" y2="167.296" stroke="black"/>
</g>
</svg>
