<svg width="152" height="72" viewBox="0 0 152 72" fill="none" xmlns="http://www.w3.org/2000/svg">
<mask id="mask0_14_1088" style="mask-type:alpha" maskUnits="userSpaceOnUse" x="0" y="0" width="152" height="72">
<rect x="152" y="72" width="152" height="72" transform="rotate(-180 152 72)" fill="#D9D9D9"/>
</mask>
<g mask="url(#mask0_14_1088)">
<line x1="165.261" y1="127.455" x2="-22.6088" y2="18.9883" stroke="black"/>
<line x1="203.081" y1="61.9476" x2="15.2118" y2="-46.5189" stroke="black"/>
<line x1="184.171" y1="94.7013" x2="-3.6986" y2="-13.7652" stroke="black"/>
<line x1="146.35" y1="160.208" x2="-41.5192" y2="51.742" stroke="black"/>
<line x1="221.991" y1="29.1941" x2="34.122" y2="-79.2724" stroke="black"/>
<line x1="174.716" y1="111.078" x2="-13.1537" y2="2.61147" stroke="black"/>
<line x1="136.895" y1="176.585" x2="-50.9742" y2="68.1187" stroke="black"/>
<line x1="212.536" y1="45.5709" x2="24.6669" y2="-62.8956" stroke="black"/>
<line x1="193.626" y1="78.3243" x2="5.75672" y2="-30.1422" stroke="black"/>
<line x1="155.805" y1="143.832" x2="-32.0641" y2="35.365" stroke="black"/>
<line x1="231.447" y1="12.8173" x2="43.577" y2="-95.6493" stroke="black"/>
<line x1="168.412" y1="121.996" x2="-19.4571" y2="13.5294" stroke="black"/>
<line x1="206.233" y1="56.4888" x2="18.3634" y2="-51.9778" stroke="black"/>
<line x1="187.323" y1="89.2424" x2="-0.546744" y2="-19.2241" stroke="black"/>
<line x1="149.502" y1="154.75" x2="-38.3673" y2="46.2831" stroke="black"/>
<line x1="225.143" y1="23.7352" x2="37.2738" y2="-84.7313" stroke="black"/>
<line x1="177.867" y1="105.619" x2="-10.0021" y2="-2.84739" stroke="black"/>
<line x1="140.047" y1="171.126" x2="-47.8226" y2="62.6598" stroke="black"/>
<line x1="215.688" y1="40.1121" x2="27.8185" y2="-68.3545" stroke="black"/>
<line x1="196.778" y1="72.8655" x2="8.90833" y2="-35.601" stroke="black"/>
<line x1="158.957" y1="138.373" x2="-28.9122" y2="29.9061" stroke="black"/>
<line x1="234.598" y1="7.3584" x2="46.7289" y2="-101.108" stroke="black"/>
<line x1="171.564" y1="116.537" x2="-16.3055" y2="8.07058" stroke="black"/>
<line x1="209.385" y1="51.0299" x2="21.515" y2="-57.4366" stroke="black"/>
<line x1="190.474" y1="83.7834" x2="2.60487" y2="-24.6831" stroke="black"/>
<line x1="152.654" y1="149.291" x2="-35.2157" y2="40.824" stroke="black"/>
<line x1="228.295" y1="18.2762" x2="40.4254" y2="-90.1903" stroke="black"/>
<line x1="181.019" y1="100.16" x2="-6.85021" y2="-8.30625" stroke="black"/>
<line x1="143.199" y1="165.667" x2="-44.6708" y2="57.2008" stroke="black"/>
<line x1="218.84" y1="34.6532" x2="30.9703" y2="-73.8133" stroke="black"/>
<line x1="199.929" y1="67.4066" x2="12.0599" y2="-41.0599" stroke="black"/>
<line x1="162.109" y1="132.914" x2="-25.7606" y2="24.4473" stroke="black"/>
<line x1="237.75" y1="1.89953" x2="49.8805" y2="-106.567" stroke="black"/>
</g>
</svg>
