<svg width="159" height="68" viewBox="0 0 159 68" fill="none" xmlns="http://www.w3.org/2000/svg">
<mask id="mask0_8_394" style="mask-type:alpha" maskUnits="userSpaceOnUse" x="0" y="0" width="159" height="68">
<rect y="3.8147e-06" width="159" height="68" fill="#D9D9D9"/>
</mask>
<g mask="url(#mask0_8_394)">
<circle cx="4" cy="5" r="2" fill="black"/>
<circle cx="4" cy="33" r="2" fill="black"/>
<circle cx="4" cy="61" r="2" fill="black"/>
<circle cx="18" cy="19" r="2" fill="black"/>
<circle cx="18" cy="47" r="2" fill="black"/>
<circle cx="79" cy="5" r="2" fill="black"/>
<circle cx="79" cy="33" r="2" fill="black"/>
<circle cx="79" cy="61" r="2" fill="black"/>
<circle cx="93" cy="19" r="2" fill="black"/>
<circle cx="93" cy="47" r="2" fill="black"/>
<circle cx="29" cy="5" r="2" fill="black"/>
<circle cx="29" cy="33" r="2" fill="black"/>
<circle cx="29" cy="61" r="2" fill="black"/>
<circle cx="43" cy="19" r="2" fill="black"/>
<circle cx="43" cy="47" r="2" fill="black"/>
<circle cx="104" cy="5" r="2" fill="black"/>
<circle cx="104" cy="33" r="2" fill="black"/>
<circle cx="104" cy="61" r="2" fill="black"/>
<circle cx="118" cy="19" r="2" fill="black"/>
<circle cx="118" cy="47" r="2" fill="black"/>
<circle cx="54" cy="5" r="2" fill="black"/>
<circle cx="54" cy="33" r="2" fill="black"/>
<circle cx="54" cy="61" r="2" fill="black"/>
<circle cx="68" cy="19" r="2" fill="black"/>
<circle cx="68" cy="47" r="2" fill="black"/>
<circle cx="129" cy="5" r="2" fill="black"/>
<circle cx="129" cy="33" r="2" fill="black"/>
<circle cx="129" cy="61" r="2" fill="black"/>
<circle cx="143" cy="19" r="2" fill="black"/>
<circle cx="143" cy="47" r="2" fill="black"/>
<circle cx="154" cy="5" r="2" fill="black"/>
<circle cx="154" cy="33" r="2" fill="black"/>
<circle cx="154" cy="61" r="2" fill="black"/>
</g>
</svg>
