<svg width="152" height="152" viewBox="0 0 152 152" fill="none" xmlns="http://www.w3.org/2000/svg">
<mask id="mask0_8_211" style="mask-type:alpha" maskUnits="userSpaceOnUse" x="0" y="0" width="152" height="152">
<rect x="152" y="152" width="152" height="152" transform="rotate(-180 152 152)" fill="#D9D9D9"/>
</mask>
<g mask="url(#mask0_8_211)">
<line x1="89.6195" y1="258.469" x2="-98.25" y2="150.003" stroke="black"/>
<line x1="165.261" y1="127.455" x2="-22.6089" y2="18.9883" stroke="black"/>
<line x1="127.44" y1="192.962" x2="-60.4294" y2="84.4954" stroke="black"/>
<line x1="203.081" y1="61.9476" x2="15.2117" y2="-46.5189" stroke="black"/>
<line x1="108.53" y1="225.716" x2="-79.3396" y2="117.249" stroke="black"/>
<line x1="184.171" y1="94.7013" x2="-3.6986" y2="-13.7652" stroke="black"/>
<line x1="146.35" y1="160.208" x2="-41.5192" y2="51.742" stroke="black"/>
<line x1="221.992" y1="29.1941" x2="34.1221" y2="-79.2724" stroke="black"/>
<line x1="99.0747" y1="242.092" x2="-88.7948" y2="133.626" stroke="black"/>
<line x1="174.716" y1="111.078" x2="-13.1537" y2="2.61147" stroke="black"/>
<line x1="136.895" y1="176.585" x2="-50.9742" y2="68.1187" stroke="black"/>
<line x1="212.536" y1="45.5709" x2="24.6669" y2="-62.8956" stroke="black"/>
<line x1="117.985" y1="209.339" x2="-69.8845" y2="100.872" stroke="black"/>
<line x1="193.626" y1="78.3243" x2="5.7566" y2="-30.1422" stroke="black"/>
<line x1="155.806" y1="143.832" x2="-32.064" y2="35.365" stroke="black"/>
<line x1="231.447" y1="12.8173" x2="43.5772" y2="-95.6493" stroke="black"/>
<line x1="92.7712" y1="253.01" x2="-95.0983" y2="144.544" stroke="black"/>
<line x1="168.412" y1="121.996" x2="-19.4571" y2="13.5294" stroke="black"/>
<line x1="130.592" y1="187.503" x2="-57.2777" y2="79.0365" stroke="black"/>
<line x1="206.233" y1="56.4888" x2="18.3634" y2="-51.9778" stroke="black"/>
<line x1="111.682" y1="220.257" x2="-76.188" y2="111.79" stroke="black"/>
<line x1="187.323" y1="89.2424" x2="-0.546866" y2="-19.2241" stroke="black"/>
<line x1="149.502" y1="154.75" x2="-38.3674" y2="46.2831" stroke="black"/>
<line x1="225.143" y1="23.7352" x2="37.2737" y2="-84.7313" stroke="black"/>
<line x1="102.226" y1="236.634" x2="-85.6431" y2="128.167" stroke="black"/>
<line x1="177.868" y1="105.619" x2="-10.0019" y2="-2.84739" stroke="black"/>
<line x1="140.047" y1="171.126" x2="-47.8225" y2="62.6598" stroke="black"/>
<line x1="215.688" y1="40.1121" x2="27.8186" y2="-68.3545" stroke="black"/>
<line x1="121.137" y1="203.88" x2="-66.7328" y2="95.4134" stroke="black"/>
<line x1="196.778" y1="72.8655" x2="8.90833" y2="-35.6011" stroke="black"/>
<line x1="158.957" y1="138.373" x2="-28.9122" y2="29.9062" stroke="black"/>
<line x1="234.598" y1="7.3584" x2="46.7289" y2="-101.108" stroke="black"/>
<line x1="95.923" y1="247.551" x2="-91.9465" y2="139.085" stroke="black"/>
<line x1="171.564" y1="116.537" x2="-16.3054" y2="8.07058" stroke="black"/>
<line x1="133.744" y1="182.044" x2="-54.126" y2="73.5775" stroke="black"/>
<line x1="209.385" y1="51.0299" x2="21.5151" y2="-57.4366" stroke="black"/>
<line x1="114.833" y1="214.798" x2="-73.0362" y2="106.331" stroke="black"/>
<line x1="190.474" y1="83.7834" x2="2.60487" y2="-24.6831" stroke="black"/>
<line x1="152.654" y1="149.291" x2="-35.2157" y2="40.824" stroke="black"/>
<line x1="228.295" y1="18.2762" x2="40.4254" y2="-90.1903" stroke="black"/>
<line x1="105.378" y1="231.174" x2="-82.4913" y2="122.708" stroke="black"/>
<line x1="181.019" y1="100.16" x2="-6.85033" y2="-8.30625" stroke="black"/>
<line x1="143.199" y1="165.667" x2="-44.6709" y2="57.2008" stroke="black"/>
<line x1="218.84" y1="34.6532" x2="30.9703" y2="-73.8133" stroke="black"/>
<line x1="124.288" y1="198.421" x2="-63.581" y2="89.9542" stroke="black"/>
<line x1="199.929" y1="67.4066" x2="12.0599" y2="-41.0599" stroke="black"/>
<line x1="162.109" y1="132.914" x2="-25.7606" y2="24.4473" stroke="black"/>
<line x1="237.75" y1="1.89957" x2="49.8805" y2="-106.567" stroke="black"/>
</g>
</svg>
