<svg width="152" height="152" viewBox="0 0 152 152" fill="none" xmlns="http://www.w3.org/2000/svg">
<mask id="mask0_14_1395" style="mask-type:alpha" maskUnits="userSpaceOnUse" x="-1" y="0" width="153" height="152">
<rect x="152" y="7.62939e-06" width="152" height="152" rx="76" transform="rotate(90 152 7.62939e-06)" fill="#D9D9D9"/>
</mask>
<g mask="url(#mask0_14_1395)">
<mask id="mask1_14_1395" style="mask-type:alpha" maskUnits="userSpaceOnUse" x="-35" y="-21" width="221" height="97">
<rect x="-35" y="-21" width="221" height="97" fill="#D9D9D9"/>
</mask>
<g mask="url(#mask1_14_1395)">
<line x1="149.5" y1="-4.77985" x2="149.5" y2="167.296" stroke="black"/>
<line x1="29.4998" y1="-4.77985" x2="29.4997" y2="167.296" stroke="black"/>
<line x1="89.4998" y1="-4.77985" x2="89.4997" y2="167.296" stroke="black"/>
<line x1="119.5" y1="-4.77985" x2="119.5" y2="167.296" stroke="black"/>
<line x1="59.4998" y1="-4.77985" x2="59.4997" y2="167.296" stroke="black"/>
<line x1="134.5" y1="-4.77985" x2="134.5" y2="167.296" stroke="black"/>
<line x1="14.4998" y1="-4.77986" x2="14.4997" y2="167.296" stroke="black"/>
<line x1="74.4998" y1="-4.77985" x2="74.4997" y2="167.296" stroke="black"/>
<line x1="104.5" y1="-4.77985" x2="104.5" y2="167.296" stroke="black"/>
<line x1="44.4998" y1="-4.77985" x2="44.4997" y2="167.296" stroke="black"/>
<line x1="144.5" y1="-4.77985" x2="144.5" y2="167.296" stroke="black"/>
<line x1="24.4998" y1="-4.77985" x2="24.4997" y2="167.296" stroke="black"/>
<line x1="84.4998" y1="-4.77985" x2="84.4997" y2="167.296" stroke="black"/>
<line x1="114.5" y1="-4.77985" x2="114.5" y2="167.296" stroke="black"/>
<line x1="54.4998" y1="-4.77985" x2="54.4997" y2="167.296" stroke="black"/>
<line x1="129.5" y1="-4.77985" x2="129.5" y2="167.296" stroke="black"/>
<line x1="9.49976" y1="-4.77986" x2="9.49975" y2="167.296" stroke="black"/>
<line x1="69.4998" y1="-4.77985" x2="69.4997" y2="167.296" stroke="black"/>
<line x1="99.4998" y1="-4.77985" x2="99.4997" y2="167.296" stroke="black"/>
<line x1="39.4998" y1="-4.77985" x2="39.4997" y2="167.296" stroke="black"/>
<line x1="139.5" y1="-4.77985" x2="139.5" y2="167.296" stroke="black"/>
<line x1="19.4998" y1="-4.77985" x2="19.4997" y2="167.296" stroke="black"/>
<line x1="79.4998" y1="-4.77985" x2="79.4997" y2="167.296" stroke="black"/>
<line x1="109.5" y1="-4.77985" x2="109.5" y2="167.296" stroke="black"/>
<line x1="49.4998" y1="-4.77985" x2="49.4997" y2="167.296" stroke="black"/>
<line x1="124.5" y1="-4.77985" x2="124.5" y2="167.296" stroke="black"/>
<line x1="4.49976" y1="-4.77986" x2="4.49975" y2="167.296" stroke="black"/>
<line x1="64.4998" y1="-4.77985" x2="64.4997" y2="167.296" stroke="black"/>
<line x1="94.4998" y1="-4.77985" x2="94.4997" y2="167.296" stroke="black"/>
<line x1="34.4998" y1="-4.77985" x2="34.4997" y2="167.296" stroke="black"/>
</g>
</g>
</svg>
